HIERARCHY
ROOT hip
{
  OFFSET 0 0 0
  CHANNELS 6 Xposition Yposition Zposition Zrotation Yrotation Xrotation
  JOINT abdomen
  {
    OFFSET 0 20.6881 -0.73152
    CHANNELS 3 Zrotation Xrotation Yrotation
    JOINT chest
    {
      OFFSET 0 11.7043 -0.48768
      CHANNELS 3 Zrotation Xrotation Yrotation
      JOINT neck
      {
        OFFSET 0 22.1894 -2.19456
        CHANNELS 3 Zrotation Xrotation Yrotation
        JOINT head
        {
          OFFSET -0.24384 7.07133 1.2192
          CHANNELS 3 Zrotation Xrotation Yrotation
          JOINT leftEye
          {
            OFFSET 4.14528 8.04674 8.04672
            CHANNELS 3 Zrotation Xrotation Yrotation
            End Site
            {
              OFFSET 1 0 0
            }
          }
          JOINT rightEye
          {
            OFFSET -3.6576 8.04674 8.04672
            CHANNELS 3 Zrotation Xrotation Yrotation
            End Site
            {
              OFFSET 1 0 0
            }
          }
        }
      }
      JOINT rCollar
      {
        OFFSET -2.68224 19.2634 -4.8768
        CHANNELS 3 Zrotation Xrotation Yrotation
        JOINT rShldr
        {
          OFFSET -8.77824 -1.95073 1.46304
          CHANNELS 3 Zrotation Xrotation Yrotation
          JOINT rForeArm
          {
            OFFSET -28.1742 -1.7115 0.48768
            CHANNELS 3 Zrotation Xrotation Yrotation
            JOINT rHand
            {
              OFFSET -22.5879 0.773209 7.07136
              CHANNELS 3 Zrotation Xrotation Yrotation
              JOINT rThumb1
              {
                OFFSET -1.2192 -0.487915 3.41376
                CHANNELS 3 Zrotation Xrotation Yrotation
                JOINT rThumb2
                {
                  OFFSET -3.37035 -0.52449 3.41376
                  CHANNELS 3 Zrotation Xrotation Yrotation
                  End Site
                  {
                    OFFSET -1.78271 -1.18214 1.43049
                  }
                }
              }
              JOINT rIndex1
              {
                OFFSET -7.75947 0.938293 5.60832
                CHANNELS 3 Zrotation Xrotation Yrotation
                JOINT rIndex2
                {
                  OFFSET -2.54057 -0.884171 1.56538
                  CHANNELS 3 Zrotation Xrotation Yrotation
                  End Site
                  {
                    OFFSET -1.62519 -0.234802 1.16502
                  }
                }
              }
              JOINT rMid1
              {
                OFFSET -8.24714 1.18213 3.41376
                CHANNELS 3 Zrotation Xrotation Yrotation
                JOINT rMid2
                {
                  OFFSET -3.10165 -0.590103 1.0647
                  CHANNELS 3 Zrotation Xrotation Yrotation
                  End Site
                  {
                    OFFSET -2.48547 -0.328903 0.83742
                  }
                }
              }
              JOINT rRing1
              {
                OFFSET -8.82822 0.546677 1.51678
                CHANNELS 3 Zrotation Xrotation Yrotation
                JOINT rRing2
                {
                  OFFSET -2.60934 -0.819778 -0.0198488
                  CHANNELS 3 Zrotation Xrotation Yrotation
                  End Site
                  {
                    OFFSET -2.33842 -0.294052 0.168128
                  }
                }
              }
              JOINT rPinky1
              {
                OFFSET -8.27202 -0.0477905 -0.4584
                CHANNELS 3 Zrotation Xrotation Yrotation
                JOINT rPinky2
                {
                  OFFSET -1.82734 -0.647385 -0.700984
                  CHANNELS 3 Zrotation Xrotation Yrotation
                  End Site
                  {
                    OFFSET -1.69225 -0.51767 -0.607171
                  }
                }
              }
            }
          }
        }
      }
      JOINT lCollar
      {
        OFFSET 2.68224 19.2634 -4.8768
        CHANNELS 3 Zrotation Xrotation Yrotation
        JOINT lShldr
        {
          OFFSET 8.77824 -1.95073 1.46304
          CHANNELS 3 Zrotation Xrotation Yrotation
          JOINT lForeArm
          {
            OFFSET 28.1742 -1.7115 0.48768
            CHANNELS 3 Zrotation Xrotation Yrotation
            JOINT lHand
            {
              OFFSET 22.5879 0.773209 7.07136
              CHANNELS 3 Zrotation Xrotation Yrotation
              JOINT lThumb1
              {
                OFFSET 1.2192 -0.487915 3.41376
                CHANNELS 3 Zrotation Xrotation Yrotation
                JOINT lThumb2
                {
                  OFFSET 3.37035 -0.52449 3.41376
                  CHANNELS 3 Zrotation Xrotation Yrotation
                  End Site
                  {
                    OFFSET 1.78271 -1.18214 1.43049
                  }
                }
              }
              JOINT lIndex1
              {
                OFFSET 7.75947 0.938293 5.60832
                CHANNELS 3 Zrotation Xrotation Yrotation
                JOINT lIndex2
                {
                  OFFSET 2.54057 -0.884171 1.56538
                  CHANNELS 3 Zrotation Xrotation Yrotation
                  End Site
                  {
                    OFFSET 1.62519 -0.234802 1.16502
                  }
                }
              }
              JOINT lMid1
              {
                OFFSET 8.24714 1.18213 3.41376
                CHANNELS 3 Zrotation Xrotation Yrotation
                JOINT lMid2
                {
                  OFFSET 3.10165 -0.590103 1.0647
                  CHANNELS 3 Zrotation Xrotation Yrotation
                  End Site
                  {
                    OFFSET 2.48547 -0.328903 0.83742
                  }
                }
              }
              JOINT lRing1
              {
                OFFSET 8.82822 0.546677 1.51678
                CHANNELS 3 Zrotation Xrotation Yrotation
                JOINT lRing2
                {
                  OFFSET 2.60934 -0.819778 -0.0198488
                  CHANNELS 3 Zrotation Xrotation Yrotation
                  End Site
                  {
                    OFFSET 2.33842 -0.294052 0.168128
                  }
                }
              }
              JOINT lPinky1
              {
                OFFSET 8.27202 -0.0477905 -0.4584
                CHANNELS 3 Zrotation Xrotation Yrotation
                JOINT lPinky2
                {
                  OFFSET 1.82734 -0.647385 -0.700984
                  CHANNELS 3 Zrotation Xrotation Yrotation
                  End Site
                  {
                    OFFSET 1.69225 -0.51767 -0.607171
                  }
                }
              }
            }
          }
        }
      }
    }
  }
  JOINT rButtock
  {
    OFFSET -8.77824 4.35084 1.2192
    CHANNELS 3 Zrotation Xrotation Yrotation
    JOINT rThigh
    {
      OFFSET 0 -1.70687 -2.19456
      CHANNELS 3 Zrotation Xrotation Yrotation
      JOINT rShin
      {
        OFFSET 0 -36.8199 0.73152
        CHANNELS 3 Zrotation Xrotation Yrotation
        JOINT rFoot
        {
          OFFSET 0.73152 -45.1104 -5.12064
          CHANNELS 3 Zrotation Xrotation Yrotation
          End Site
          {
            OFFSET -1.1221 -3.69964 12.103
          }
        }
      }
    }
  }
  JOINT lButtock
  {
    OFFSET 8.77824 4.35084 1.2192
    CHANNELS 3 Zrotation Xrotation Yrotation
    JOINT lThigh
    {
      OFFSET 0 -1.70687 -2.19456
      CHANNELS 3 Zrotation Xrotation Yrotation
      JOINT lShin
      {
        OFFSET 0 -36.8199 0.73152
        CHANNELS 3 Zrotation Xrotation Yrotation
        JOINT lFoot
        {
          OFFSET -0.73152 -45.1104 -5.12064
          CHANNELS 3 Zrotation Xrotation Yrotation
          End Site
          {
            OFFSET 1.1221 -3.69964 12.103
          }
        }
      }
    }
  }
}
MOTION
Frames:	7
Frame Time:	0.00833333
13.8185 100.572 -57.3825 -182.722 -18.154 -184.328 1.25246 26.2849 -1.40057 2.03387 -5.69769 -0.83555 -3.79917 5.14547 -0.314463 -3.47162 -9.27306 -0.927218 -0.0 0.0 0.0 -0.0 0.0 0.0 2.50676e-14 1.29107e-14 3.12512e-14 44.9884 12.8962 -45.8236 -17.5419 -10.2025 33.0009 -0.000463926 -0.424704 -0.0596784 2.75494e-10 2.87375e-10 2.74467e-10 4.74507e-10 4.97379e-10 4.74962e-10 2.75502e-10 2.87366e-10 2.74462e-10 7.73091 5.47488 0.417314 2.75493e-10 2.87366e-10 2.7447e-10 2.90554 0.965183 0.102902 2.755e-10 2.87365e-10 2.74468e-10 10.2786 0.731801 0.0259123 2.75489e-10 2.87365e-10 2.74477e-10 2.22167 -0.733487 -0.20892 2.48642e-14 1.29298e-14 3.09572e-14 -41.5595 12.3028 44.5368 17.154 -9.80648 -32.1467 0.00446683 2.1194 -0.297969 -4.40923e-11 5.87942e-10 -3.13823e-11 -7.4546e-11 1.01593e-09 -5.34391e-11 -4.40982e-11 5.8794e-10 -3.13713e-11 -7.73091 5.47488 -0.417314 -4.40846e-11 5.87936e-10 -3.13853e-11 -2.90554 0.965183 -0.102902 -4.40963e-11 5.87934e-10 -3.13874e-11 -10.2786 0.731801 -0.0259123 -4.40845e-11 5.87937e-10 -3.13909e-11 -2.22167 -0.733487 0.20892 -2.03217e-16 0.0 -3.88251e-19 -15.1561 -43.8361 -14.1446 -0.38873 48.3282 1.54985 1.62791 9.82035 -5.61737 2.03217e-16 0.0 3.88251e-19 7.2471 -41.1455 -6.88299 0.277734 38.9606 -1.00103 -0.0917687 9.21885 -4.36503
13.1509 98.9903 -59.9796 -182.364 -18.5202 -184.958 1.51098 25.5725 -1.75128 2.07847 -5.26238 -0.904296 -3.78682 5.04226 -0.241033 -3.3379 -8.81811 -0.778584 -0.0 0.0 0.0 -0.0 0.0 0.0 -1.65467e-14 -7.96148e-15 1.46405e-13 44.7811 12.869 -47.3519 -17.8513 -10.5277 33.6875 -0.000804033 -0.809643 -0.113796 4.51873e-10 2.95531e-10 6.41785e-10 7.80179e-10 5.11484e-10 1.11119e-09 4.5188e-10 2.95522e-10 6.41782e-10 7.73091 5.47488 0.417314 4.51872e-10 2.95522e-10 6.41791e-10 2.90554 0.965183 0.102902 4.51878e-10 2.95522e-10 6.41789e-10 10.2786 0.731801 0.0259123 4.51868e-10 2.95522e-10 6.41801e-10 2.22167 -0.733487 -0.20892 -1.68007e-14 -7.94323e-15 1.46107e-13 -41.494 13.4743 46.2643 17.5089 -10.1683 -32.9275 0.00864404 2.6536 -0.373209 -2.848e-10 3.39801e-10 1.15025e-10 -4.92341e-10 5.87767e-10 2.00777e-10 -2.84806e-10 3.39797e-10 1.15034e-10 -7.73091 5.47488 -0.417314 -2.84792e-10 3.39795e-10 1.15022e-10 -2.90554 0.965183 -0.102902 -2.84803e-10 3.39791e-10 1.1502e-10 -10.2786 0.731801 -0.0259123 -2.84791e-10 3.39794e-10 1.15018e-10 -2.22167 -0.733487 0.20892 -2.03217e-16 0.0 -3.88251e-19 -13.4458 -41.5873 -11.3648 -0.328278 46.1014 1.45746 1.82408 11.5385 -5.75238 2.03217e-16 0.0 3.88251e-19 7.22885 -39.7653 -7.14544 0.271348 38.5201 -0.989691 -0.0810801 9.74944 -4.06558
12.4889 97.3349 -62.5655 -182.013 -18.8289 -185.565 1.70911 24.832 -2.00149 2.13705 -4.81642 -0.946502 -3.81513 4.96859 -0.187683 -3.16625 -8.44036 -0.660389 -0.0 0.0 0.0 -0.0 0.0 0.0 6.45253e-15 1.48496e-14 4.37237e-14 44.7005 12.7945 -48.771 -18.1661 -10.8673 34.3905 -0.0019145 -1.17804 -0.165588 6.67663e-10 2.48202e-11 3.22626e-10 1.15512e-09 4.31242e-11 5.57869e-10 6.67669e-10 2.48129e-11 3.22623e-10 7.73091 5.47488 0.417314 6.67661e-10 2.48135e-11 3.22633e-10 2.90554 0.965183 0.102902 6.67667e-10 2.48128e-11 3.22631e-10 10.2786 0.731801 0.0259123 6.67659e-10 2.48128e-11 3.22645e-10 2.22167 -0.733487 -0.20892 6.23816e-15 1.48672e-14 4.3431e-14 -41.4055 14.1956 47.7593 17.854 -10.5315 -33.6907 0.0116953 2.99999 -0.422033 -7.98052e-11 6.87979e-10 -2.87933e-10 -1.383e-10 1.19184e-09 -4.98635e-10 -7.9811e-11 6.87976e-10 -2.87922e-10 -7.73091 5.47488 -0.417314 -7.97983e-11 6.87974e-10 -2.87933e-10 -2.90554 0.965183 -0.102902 -7.98096e-11 6.87971e-10 -2.87935e-10 -10.2786 0.731801 -0.0259123 -7.97982e-11 6.87973e-10 -2.87936e-10 -2.22167 -0.733487 0.20892 -2.03217e-16 0.0 -3.88251e-19 -11.8359 -39.464 -8.69594 -0.281867 44.2479 1.37966 1.98562 13.1561 -5.77349 2.03217e-16 0.0 3.88251e-19 7.24736 -38.4547 -7.21929 0.266839 38.219 -0.98399 -0.0672113 10.3243 -3.78744
11.826 95.6202 -65.1251 -181.671 -19.0864 -186.139 1.87069 24.0686 -2.17389 2.19984 -4.35411 -0.968108 -3.8755 4.91353 -0.151839 -2.96328 -8.11916 -0.56942 -0.0 0.0 0.0 -0.0 0.0 0.0 6.89183e-14 6.14157e-14 -1.9275e-13 44.7189 12.6934 -50.0693 -18.4791 -11.2139 35.0958 -0.00310712 -1.50744 -0.211915 9.22593e-10 -4.30921e-10 -4.14197e-10 1.59862e-09 -7.45365e-10 -7.19207e-10 9.22597e-10 -4.30926e-10 -4.14199e-10 7.73091 5.47488 0.417314 9.22589e-10 -4.30925e-10 -4.14191e-10 2.90554 0.965183 0.102902 9.22595e-10 -4.30925e-10 -4.14191e-10 10.2786 0.731801 0.0259123 9.22588e-10 -4.30925e-10 -4.14175e-10 2.22167 -0.733487 -0.20892 6.88004e-14 6.14326e-14 -1.93029e-13 -41.3023 14.6174 49.0473 18.2005 -10.9051 -34.4681 0.0140955 3.26591 -0.459535 3.82127e-10 1.36073e-09 -1.0416e-09 6.60543e-10 2.35791e-09 -1.80677e-09 3.82122e-10 1.36073e-09 -1.04159e-09 -7.73091 5.47488 -0.417314 3.82132e-10 1.36073e-09 -1.0416e-09 -2.90554 0.965183 -0.102902 3.82121e-10 1.36073e-09 -1.0416e-09 -10.2786 0.731801 -0.0259123 3.82132e-10 1.36073e-09 -1.04161e-09 -2.22167 -0.733487 0.20892 -2.03217e-16 0.0 -3.88251e-19 -10.3016 -37.418 -6.08927 -0.243992 42.7178 1.311 2.11466 14.6703 -5.7245 2.03217e-16 0.0 3.88251e-19 7.27739 -37.1905 -7.1663 0.26394 38.0399 -0.982576 -0.0530176 10.9324 -3.51239
11.1614 93.8425 -67.6514 -181.339 -19.2997 -186.673 2.00623 23.3067 -2.27467 2.26138 -3.9239 -0.969482 -3.95781 4.85727 -0.135105 -2.72952 -7.82207 -0.508831 -0.0 0.0 0.0 -0.0 0.0 0.0 1.39294e-13 9.71484e-14 -4.49696e-13 44.8588 12.4655 -51.1998 -18.7646 -11.5356 35.7511 -0.00438442 -1.83966 -0.258648 1.09621e-09 -1.00482e-09 -1.27224e-09 1.90201e-09 -1.73836e-09 -2.20625e-09 1.09621e-09 -1.00483e-09 -1.27224e-09 7.73091 5.47488 0.417314 1.09621e-09 -1.00483e-09 -1.27223e-09 2.90554 0.965183 0.102902 1.09621e-09 -1.00483e-09 -1.27223e-09 10.2786 0.731801 0.0259123 1.09621e-09 -1.00483e-09 -1.27221e-09 2.22167 -0.733487 -0.20892 1.39279e-13 9.71641e-14 -4.4996e-13 -41.2493 14.782 50.1226 18.5407 -11.2808 -35.243 0.014809 3.37301 -0.474633 9.44904e-10 2.02862e-09 -1.82805e-09 1.63412e-09 3.51542e-09 -3.17192e-09 9.44899e-10 2.02862e-09 -1.82804e-09 -7.73091 5.47488 -0.417314 9.44907e-10 2.02862e-09 -1.82804e-09 -2.90554 0.965183 -0.102902 9.44897e-10 2.02862e-09 -1.82805e-09 -10.2786 0.731801 -0.0259123 9.44907e-10 2.02862e-09 -1.82805e-09 -2.22167 -0.733487 0.20892 -2.03217e-16 0.0 -3.88251e-19 -8.9494 -35.4741 -3.74608 -0.215723 41.5205 1.2531 2.19921 16.0057 -5.61076 2.03217e-16 0.0 3.88251e-19 7.31502 -36.0159 -6.96826 0.262872 38.0017 -0.98593 -0.0239159 11.4836 -3.37745
10.491 92.0033 -70.1356 -181.025 -19.4812 -187.163 2.12615 22.5705 -2.30983 2.31627 -3.57421 -0.950958 -4.05191 4.77999 -0.139084 -2.46568 -7.51665 -0.48182 -0.0 0.0 0.0 -0.0 0.0 0.0 1.86022e-13 8.74588e-14 -6.13797e-13 45.1368 12.0201 -52.117 -18.9996 -11.8032 36.3032 -0.00602919 -2.21651 -0.311667 1.06807e-09 -1.63002e-09 -1.95504e-09 1.85661e-09 -2.82024e-09 -3.38946e-09 1.06807e-09 -1.63002e-09 -1.95505e-09 7.73091 5.47488 0.417314 1.06807e-09 -1.63002e-09 -1.95504e-09 2.90554 0.965183 0.102902 1.06807e-09 -1.63002e-09 -1.95504e-09 10.2786 0.731801 0.0259123 1.06807e-09 -1.63002e-09 -1.95502e-09 2.22167 -0.733487 -0.20892 1.86065e-13 8.74726e-14 -6.14046e-13 -41.3192 14.7251 50.9854 18.8683 -11.6516 -35.9984 0.0129152 3.2429 -0.456251 1.45243e-09 2.36223e-09 -2.32935e-09 2.51237e-09 4.09382e-09 -4.04237e-09 1.45243e-09 2.36223e-09 -2.32933e-09 -7.73091 5.47488 -0.417314 1.45243e-09 2.36223e-09 -2.32933e-09 -2.90554 0.965183 -0.102902 1.45242e-09 2.36223e-09 -2.32934e-09 -10.2786 0.731801 -0.0259123 1.45243e-09 2.36223e-09 -2.32934e-09 -2.22167 -0.733487 0.20892 -2.03217e-16 0.0 -3.88251e-19 -7.84963 -33.6735 -1.84978 -0.198315 40.6659 1.20795 2.22958 17.0864 -5.43748 2.03217e-16 0.0 3.88251e-19 7.35654 -34.9731 -6.60609 0.263945 38.1235 -0.9946 0.0403588 11.8879 -3.52058
9.81542 90.1002 -72.5738 -180.73 -19.6405 -187.606 2.2511 21.8509 -2.26227 2.36871 -3.30536 -0.905555 -4.17173 4.66686 -0.170043 -2.15356 -7.15612 -0.498385 -0.0 0.0 0.0 -0.0 0.0 0.0 2.02668e-13 -9.98149e-15 -6.46405e-13 45.5418 11.3142 -52.8492 -19.1897 -12.0235 36.7529 -0.00848595 -2.65515 -0.373418 6.78059e-10 -2.51132e-09 -2.48645e-09 1.18643e-09 -4.34556e-09 -4.31006e-09 6.78061e-10 -2.51132e-09 -2.48646e-09 7.73091 5.47488 0.417314 6.78055e-10 -2.51132e-09 -2.48645e-09 2.90554 0.965183 0.102902 6.78062e-10 -2.51132e-09 -2.48645e-09 10.2786 0.731801 0.0259123 6.78055e-10 -2.51132e-09 -2.48644e-09 2.22167 -0.733487 -0.20892 2.02702e-13 -9.97071e-15 -6.4664e-13 -41.4752 14.4178 51.6163 19.1912 -12.0279 -36.7477 0.00802813 2.75513 -0.387454 2.00186e-09 2.14293e-09 -2.43574e-09 3.46352e-09 3.71478e-09 -4.22803e-09 2.00186e-09 2.14293e-09 -2.43573e-09 -7.73091 5.47488 -0.417314 2.00186e-09 2.14293e-09 -2.43573e-09 -2.90554 0.965183 -0.102902 2.00186e-09 2.14293e-09 -2.43573e-09 -10.2786 0.731801 -0.0259123 2.00187e-09 2.14293e-09 -2.43574e-09 -2.22167 -0.733487 0.20892 -2.03217e-16 0.0 -3.88251e-19 -6.89738 -32.0342 -0.372744 -0.18925 40.1603 1.17395 2.23363 18.1776 -5.2259 2.03217e-16 0.0 3.88251e-19 7.42532 -34.0363 -6.02034 0.266097 38.3753 -1.01138 0.172973 12.244 -4.06997
